<svg width="30" height="31" viewBox="0 0 30 31" fill="none" xmlns="http://www.w3.org/2000/svg">
<path d="M8.9188 14.4862L4.16286 5.97565C3.616 4.99706 3.34257 4.50777 3.38865 4.10716C3.42886 3.75764 3.61449 3.44125 3.89999 3.23565C4.22722 3 4.78773 3 5.90875 3H8.70227C9.11889 3 9.3272 3 9.51405 3.06017C9.67939 3.11341 9.83181 3.20052 9.9616 3.31595C10.1083 3.4464 10.214 3.62588 10.4255 3.98484L15 11.75L19.5745 3.98484C19.786 3.62588 19.8917 3.4464 20.0384 3.31595C20.1682 3.20052 20.3206 3.11341 20.4859 3.06017C20.6728 3 20.8811 3 21.2977 3H24.0912C25.2123 3 25.7728 3 26.1 3.23565C26.3855 3.44125 26.5711 3.75764 26.6113 4.10716C26.6574 4.50777 26.384 4.99706 25.8371 5.97565L21.0812 14.4862M13.125 18L15 16.75V23M13.4375 23H16.5625M20.7452 14.1298C23.9182 17.3028 23.9182 22.4472 20.7452 25.6202C17.5722 28.7933 12.4278 28.7933 9.25475 25.6202C6.08174 22.4472 6.08174 17.3028 9.25475 14.1298C12.4277 10.9567 17.5722 10.9567 20.7452 14.1298Z" stroke="#FAC017" stroke-width="2.5" stroke-linecap="round" stroke-linejoin="round"/>
</svg>
