<svg width="30" height="31" viewBox="0 0 30 31" fill="none" xmlns="http://www.w3.org/2000/svg">
<path d="M21.25 18.625V14.8681C21.25 14.6437 21.25 14.5315 21.2158 14.4325C21.1856 14.3449 21.1363 14.2652 21.0715 14.199C20.9982 14.1241 20.8979 14.074 20.6972 13.9736L15 11.125M5 12.375V20.8833C5 21.3482 5 21.5806 5.07252 21.7841C5.13664 21.9641 5.24113 22.1269 5.37797 22.2601C5.53277 22.4109 5.74409 22.5077 6.16669 22.7014L14.1667 26.3681C14.4732 26.5086 14.6265 26.5788 14.7862 26.6066C14.9277 26.6311 15.0723 26.6311 15.2138 26.6066C15.3735 26.5788 15.5268 26.5086 15.8333 26.3681L23.8333 22.7014C24.2559 22.5077 24.4672 22.4109 24.622 22.2601C24.7589 22.1269 24.8634 21.9641 24.9275 21.7841C25 21.5806 25 21.3482 25 20.8833V12.375M2.5 11.125L14.5528 5.09863C14.7168 5.01664 14.7988 4.97564 14.8848 4.95951C14.9609 4.94522 15.0391 4.94522 15.1152 4.95951C15.2012 4.97564 15.2832 5.01664 15.4472 5.09863L27.5 11.125L15.4472 17.1514C15.2832 17.2334 15.2012 17.2744 15.1152 17.2905C15.0391 17.3048 14.9609 17.3048 14.8848 17.2905C14.7988 17.2744 14.7168 17.2334 14.5528 17.1514L2.5 11.125Z" stroke="#FAC017" stroke-width="2.5" stroke-linecap="round" stroke-linejoin="round"/>
</svg>
