<svg width="20" height="20" viewBox="0 0 20 20" fill="none" xmlns="http://www.w3.org/2000/svg">
<path fill-rule="evenodd" clip-rule="evenodd" d="M15.4025 16.4917V16.49L15.4175 16.4542L17.9167 3.85415V3.81415C17.9167 3.49999 17.8 3.22582 17.5483 3.06165C17.3275 2.91749 17.0733 2.90749 16.895 2.92082C16.729 2.93583 16.5652 2.96938 16.4067 3.02082C16.3391 3.04262 16.2723 3.06708 16.2067 3.09415L16.1958 3.09832L2.2625 8.56415L2.25833 8.56582C2.21597 8.58029 2.17451 8.59726 2.13416 8.61665C2.03507 8.66117 1.94 8.71415 1.85 8.77499C1.67083 8.89832 1.33 9.18832 1.3875 9.64832C1.435 10.03 1.6975 10.2717 1.875 10.3975C1.97977 10.4709 2.09241 10.5324 2.21083 10.5808L2.2375 10.5925L2.24583 10.595L2.25166 10.5975L4.69 11.4183C4.68166 11.5708 4.69666 11.7267 4.7375 11.8808L5.95833 16.5133C6.02502 16.7658 6.16914 16.9911 6.37043 17.1575C6.57173 17.3239 6.82009 17.4231 7.08064 17.4411C7.3412 17.4592 7.60085 17.3951 7.82313 17.258C8.04542 17.1209 8.21918 16.9176 8.32 16.6767L10.2267 14.6383L13.5008 17.1483L13.5475 17.1683C13.845 17.2983 14.1225 17.3392 14.3767 17.305C14.6308 17.27 14.8325 17.1633 14.9842 17.0425C15.1596 16.9003 15.2994 16.7191 15.3925 16.5133L15.3992 16.4992L15.4017 16.4942L15.4025 16.4917ZM5.94583 11.5625C5.93231 11.5111 5.93552 11.4567 5.955 11.4073C5.97448 11.3578 6.00922 11.3159 6.05416 11.2875L14.3217 6.03749C14.3217 6.03749 14.8083 5.74165 14.7908 6.03749C14.7908 6.03749 14.8775 6.08915 14.6167 6.33165C14.37 6.56249 8.72416 12.0133 8.1525 12.565C8.12071 12.5959 8.09844 12.6352 8.08833 12.6783L7.16666 16.195L5.94583 11.5617V11.5625Z" fill="#05203E"/>
</svg>
