<svg width="30" height="31" viewBox="0 0 30 31" fill="none" xmlns="http://www.w3.org/2000/svg">
<path d="M15 6.125C15 5.71462 14.9192 5.30826 14.7621 4.92912C14.6051 4.54997 14.3749 4.20548 14.0847 3.91529C13.7945 3.62511 13.45 3.39492 13.0709 3.23788C12.6917 3.08083 12.2854 3 11.875 3C11.1454 2.99922 10.4385 3.25376 9.87684 3.71951C9.31521 4.18525 8.93425 4.83284 8.8 5.55C8.38794 5.6272 7.99562 5.78652 7.64641 6.01848C7.2972 6.25044 6.99823 6.55029 6.76731 6.90018C6.53638 7.25007 6.37821 7.64285 6.30222 8.05513C6.22624 8.46741 6.23398 8.89077 6.325 9.3C5.76082 9.40016 5.23505 9.6535 4.80515 10.0323C4.37526 10.4112 4.05779 10.9009 3.88747 11.448C3.71715 11.9951 3.70053 12.5785 3.83942 13.1344C3.97831 13.6903 4.26737 14.1973 4.675 14.6C3.98941 14.9165 3.41535 15.4326 3.02795 16.0808C2.64055 16.729 2.45786 17.479 2.50379 18.2327C2.54971 18.9865 2.82212 19.7088 3.28535 20.3051C3.74858 20.9015 4.38105 21.3441 5.1 21.575C4.96273 22.0936 4.96126 22.6387 5.09573 23.158C5.2302 23.6773 5.49608 24.1533 5.86778 24.5401C6.23948 24.9268 6.70449 25.2114 7.21804 25.3664C7.73159 25.5214 8.27639 25.5416 8.8 25.425C8.93893 26.1924 9.35975 26.8801 9.97981 27.353C10.5999 27.8259 11.3743 28.05 12.1511 27.981C12.9279 27.9121 13.6509 27.5553 14.178 26.9806C14.7051 26.4059 14.9983 25.6548 15 24.875M15 6.125V24.875M15 6.125C15 5.2962 15.3292 4.50134 15.9153 3.91529C16.5013 3.32924 17.2962 3 18.125 3C18.8546 2.99922 19.5615 3.25376 20.1232 3.71951C20.6848 4.18525 21.0657 4.83284 21.2 5.55C21.6121 5.6272 22.0044 5.78652 22.3536 6.01848C22.7028 6.25044 23.0018 6.55029 23.2327 6.90018C23.4636 7.25007 23.6218 7.64285 23.6978 8.05513C23.7738 8.46741 23.766 8.89077 23.675 9.3C24.2392 9.40016 24.7649 9.6535 25.1948 10.0323C25.6247 10.4112 25.9422 10.9009 26.1125 11.448C26.2828 11.9951 26.2995 12.5785 26.1606 13.1344C26.0217 13.6903 25.7326 14.1973 25.325 14.6C26.0106 14.9165 26.5846 15.4326 26.972 16.0808C27.3594 16.729 27.5421 17.479 27.4962 18.2327C27.4503 18.9865 27.1779 19.7088 26.7146 20.3051C26.2514 20.9015 25.6189 21.3441 24.9 21.575C25.0373 22.0936 25.0387 22.6387 24.9043 23.158C24.7698 23.6773 24.5039 24.1533 24.1322 24.5401C23.7605 24.9268 23.2955 25.2114 22.782 25.3664C22.2684 25.5214 21.7236 25.5416 21.2 25.425C21.0611 26.1924 20.6402 26.8801 20.0202 27.353C19.4001 27.8259 18.6256 28.05 17.8489 27.981C17.0721 27.9121 16.3491 27.5553 15.822 26.9806C15.2949 26.4059 15.0017 25.6548 15 24.875" stroke="#FAC017" stroke-width="2.5" stroke-linecap="round" stroke-linejoin="round"/>
</svg>
