<svg width="20" height="20" viewBox="0 0 20 20" fill="none" xmlns="http://www.w3.org/2000/svg">
<g clip-path="url(#clip0_2349_1603)">
<path d="M11.708 4.99999C12.522 5.15879 13.27 5.55687 13.8564 6.14327C14.4428 6.72967 14.8409 7.47771 14.9997 8.29166M11.708 1.66666C13.3991 1.85452 14.976 2.6118 16.1799 3.81416C17.3838 5.01652 18.143 6.5925 18.333 8.28332M8.52219 11.5525C7.52088 10.5512 6.73022 9.41903 6.15022 8.21101C6.10033 8.10711 6.07539 8.05515 6.05622 7.98941C5.98812 7.75578 6.03704 7.4689 6.17871 7.27104C6.21858 7.21536 6.26621 7.16773 6.36147 7.07247C6.65281 6.78114 6.79848 6.63547 6.89372 6.48898C7.25288 5.93658 7.25288 5.22442 6.89372 4.67202C6.79848 4.52553 6.65281 4.37987 6.36147 4.08853L6.19908 3.92614C5.75621 3.48327 5.53478 3.26183 5.29696 3.14155C4.82399 2.90232 4.26544 2.90232 3.79247 3.14155C3.55465 3.26183 3.33322 3.48327 2.89035 3.92614L2.75899 4.0575C2.31763 4.49885 2.09696 4.71953 1.92842 5.01955C1.7414 5.35247 1.60693 5.86955 1.60807 6.2514C1.60909 6.59552 1.67585 6.83071 1.80935 7.30108C2.52683 9.82891 3.88056 12.2142 5.87054 14.2042C7.86052 16.1942 10.2458 17.5479 12.7737 18.2654C13.244 18.3989 13.4792 18.4656 13.8233 18.4667C14.2052 18.4678 14.7223 18.3333 15.0552 18.1463C15.3552 17.9778 15.5759 17.7571 16.0172 17.3157L16.1486 17.1844C16.5915 16.7415 16.8129 16.5201 16.9332 16.2823C17.1724 15.8093 17.1724 15.2507 16.9332 14.7778C16.8129 14.54 16.5915 14.3185 16.1486 13.8757L15.9862 13.7133C15.6949 13.4219 15.5492 13.2763 15.4027 13.181C14.8503 12.8219 14.1382 12.8219 13.5858 13.181C13.4393 13.2763 13.2936 13.4219 13.0023 13.7133C12.907 13.8085 12.8594 13.8562 12.8037 13.896C12.6058 14.0377 12.319 14.0866 12.0853 14.0185C12.0196 13.9994 11.9676 13.9744 11.8637 13.9245C10.6557 13.3445 9.52351 12.5539 8.52219 11.5525Z" stroke="#05203E" stroke-width="2" stroke-linecap="round" stroke-linejoin="round"/>
</g>
<defs>
<clipPath id="clip0_2349_1603">
<rect width="20" height="20" fill="white"/>
</clipPath>
</defs>
</svg>
